<?xml version="1.0" encoding="utf-8"?>
<!-- Generator: Adobe Illustrator 22.0.1, SVG Export Plug-In . SVG Version: 6.00 Build 0)  -->
<svg version="1.1" id="Layer_1" xmlns="http://www.w3.org/2000/svg" xmlns:xlink="http://www.w3.org/1999/xlink" x="0px" y="0px"
	 viewBox="0 0 515 280.5" style="enable-background:new 0 0 515 280.5;" xml:space="preserve">
<style type="text/css">
	.st0{fill:none;stroke:#FFFFFF;stroke-width:3;stroke-linecap:round;stroke-linejoin:round;}
	.st1{fill:none;stroke:#FFFFFF;stroke-width:3;stroke-linecap:round;stroke-linejoin:round;stroke-dasharray:6.73,6.73;}
	.st2{fill:none;stroke:#FFFFFF;stroke-width:3;stroke-linecap:round;stroke-linejoin:round;stroke-dasharray:10.03,10.03;}
	.st3{fill:none;stroke:#FFFFFF;stroke-width:3;stroke-linecap:round;stroke-linejoin:round;stroke-dasharray:10.04,10.04;}
	.st4{fill:#FFFFFF;}
	.st5{font-family:'BodoniSvtyTwoITCTT-Bold';}
	.st6{font-size:155px;}
	.st7{enable-background:new    ;}
	.st8{font-family:'BodoniSvtyTwoITCTT-Book';}
	.st9{font-size:80px;}
	.st10{font-family:'Arial-Black';}
	.st11{font-size:36px;}
	.st12{fill:none;stroke:#FFFFFF;stroke-width:3;stroke-linecap:round;stroke-linejoin:round;stroke-dasharray:10;}
</style>
<title>Asset 2</title>
<g id="Layer_2_1_">
	<g id="Layer_1-2">
		<polyline class="st0" points="155.8,1.5 150.8,1.5 147.3,5 		"/>
		<line class="st1" x1="142.5" y1="9.8" x2="135.4" y2="17"/>
		<polyline class="st0" points="133,19.4 129.5,22.9 126,19.4 		"/>
		<path class="st2" d="M118.9,12.3L108.2,1.6h-96C6.3,1.6,1.5,6.4,1.5,12.3v256c0,5.9,4.8,10.7,10.7,10.7h96l14.2-14.2"/>
		<polyline class="st0" points="126,261.2 129.5,257.7 133,261.2 		"/>
		<path class="st3" d="M140.1,268.3l10.7,10.7h352c5.9,0,10.7-4.8,10.7-10.7v-256c0-5.9-4.7-10.8-10.7-10.8c0,0,0,0,0,0h-342"/>
		<text transform="matrix(1 0 0 1 257.5 183.96)" class="st4 st5 st6">25</text>
		<g>
			<g class="st7">
			</g>
		</g>
		<text transform="matrix(1 0 0 1 213.5 178.96)" class="st4 st8 st9">$</text>
		<text transform="matrix(6.123234e-17 -1 1 6.123234e-17 77.5 226.4004)" class="st4 st10 st11">COUPON</text>
		<line class="st12" x1="129.5" y1="52.8" x2="129.5" y2="227.8"/>
	</g>
</g>
</svg>
