<?xml version="1.0" encoding="utf-8"?>
<!-- Generator: Adobe Illustrator 21.0.0, SVG Export Plug-In . SVG Version: 6.00 Build 0)  -->
<svg version="1.1" id="Layer_1" xmlns="http://www.w3.org/2000/svg" xmlns:xlink="http://www.w3.org/1999/xlink" x="0px" y="0px"
	 viewBox="0 0 306.2 239.2" style="enable-background:new 0 0 306.2 239.2;" xml:space="preserve">
<style type="text/css">
	.st0{fill:#E1E1E1;stroke:#E1E1E1;stroke-width:6;stroke-linecap:round;stroke-miterlimit:10;}
	.st1{fill:none;stroke:#E1E1E1;stroke-width:20;stroke-linecap:round;stroke-miterlimit:10;}
</style>
<title>Asset 3octa</title>
<g id="Layer_2">
	<g id="Layer_1-2">
		<path class="st0" d="M165.9,176.5c-6.6-2.1-12.8-5.6-18-10.1c-3.1-2.7-4.7-5.6-4.7-8.9c0-5.4,4.4-9.8,9.8-9.9c2.1,0,4.2,0.7,5.8,2
			c4,3.3,8.5,6,13.4,8c4.9,1.7,10.2,2.6,15.4,2.4c5.8,0.1,11.4-1.5,16.4-4.4c4.6-2.9,6.8-6.4,6.8-10.6c-0.1-5.1-2.4-9-6.9-11.9
			c-4.6-2.8-11.8-4.9-21.7-6.3c-25-3.3-37.5-14.7-37.7-34.2c-0.2-6.6,1.7-13.1,5.4-18.6c3.9-5.4,9.1-9.6,15.3-12.2
			c6.8-2.9,14.2-4.4,21.6-4.4c6.9-0.1,13.7,0.9,20.3,3c5.8,1.8,11.1,4.6,15.9,8.3c3.3,2.6,5,5.5,5,8.9c0,2.6-1,5.1-2.8,6.9
			c-1.7,1.9-4.2,3-6.8,3c-1.6,0-3.3-0.5-4.6-1.5c-3.8-2.8-8-4.9-12.4-6.4c-4.6-1.8-9.4-2.7-14.3-2.8c-7.2,0.1-12.7,1.5-16.6,4.2
			c-3.9,2.7-5.8,6.2-5.8,10.5c-0.2,4.5,2.2,8.8,6.2,11c4.1,2.4,10.4,4.4,19.1,5.9c9.8,1.6,17.6,3.7,23.5,6.3
			c5.4,2.2,10,5.9,13.3,10.7c3,4.5,4.5,10.6,4.6,18.2c0.2,6.7-1.9,13.4-5.9,18.8c-4.1,5.5-9.6,9.9-16,12.5c-6.8,3-14.2,4.5-21.6,4.5
			C180.4,179.5,173,178.6,165.9,176.5z"/>
		<path class="st1" d="M10,10h161l15.7,0.2c60.5,0,109.5,49.1,109.5,109.5s-49.1,109.5-109.5,109.5c-42.3,0-80.7-24.3-98.9-62.5"/>
		<line class="st1" x1="21" y1="64" x2="92" y2="64.5"/>
		<line class="st1" x1="42" y1="119" x2="77" y2="119"/>
	</g>
</g>
</svg>
