<svg xmlns="http://www.w3.org/2000/svg" xmlns:xlink="http://www.w3.org/1999/xlink" viewBox="0 0 273.41 275.33"><defs><style>.cls-1{fill:url(#linear-gradient);}.cls-2{opacity:0.7;fill:url(#linear-gradient-2);}.cls-3{opacity:0.8;fill:url(#radial-gradient);}</style><linearGradient id="linear-gradient" x1="24.13" y1="148.48" x2="273.41" y2="148.48" gradientUnits="userSpaceOnUse"><stop offset="0" stop-color="#9cdcff"/><stop offset="0.13" stop-color="#96d3f8"/><stop offset="0.35" stop-color="#84bbe6"/><stop offset="0.62" stop-color="#6894c9"/><stop offset="0.94" stop-color="#425fa1"/><stop offset="1" stop-color="#395398"/></linearGradient><linearGradient id="linear-gradient-2" x1="9.54" y1="126.86" x2="258.82" y2="126.86" gradientUnits="userSpaceOnUse"><stop offset="0" stop-color="#b620b4"/><stop offset="0.23" stop-color="#ad23b5"/><stop offset="0.6" stop-color="#952bb8"/><stop offset="1" stop-color="#7437bc"/></linearGradient><radialGradient id="radial-gradient" cx="172.6" cy="107.49" fx="39.17195508561443" fy="252.96145021410746" r="197.4" gradientTransform="translate(-44.05) scale(1.05 1)" gradientUnits="userSpaceOnUse"><stop offset="0" stop-color="#b620b4"/><stop offset="0.16" stop-color="#a227b6"/><stop offset="0.45" stop-color="#7437bc"/><stop offset="0.58" stop-color="#623fb1"/><stop offset="0.85" stop-color="#444e9f"/><stop offset="1" stop-color="#395398"/></radialGradient></defs><title>Asset 3</title><g id="Layer_2" data-name="Layer 2"><g id="OBJECTS"><path class="cls-1" d="M260.63,100a75.05,75.05,0,0,0-7.74-9.67l.05,0S207,38.1,129.27,23.64l0,0A83.91,83.91,0,0,0,28.66,91.33c-15.87,77.25,15,139.32,15.2,139.69a75.33,75.33,0,0,0,6,10.77c19.07,28.33,54.34,39.57,86.74,30.43,0,0,52.47-12.9,111.35-71.37h0C275.81,174.19,282,131.73,260.63,100Z"/><path class="cls-2" d="M246,78.38a75.5,75.5,0,0,0-7.73-9.67l0,0S192.44,16.47,114.68,2l0,0A83.92,83.92,0,0,0,14.07,69.71C-1.8,147,29.08,209,29.27,209.4a74.37,74.37,0,0,0,6,10.77C54.35,248.5,89.62,259.74,122,250.6c0,0,52.48-12.9,111.36-71.37h0C261.22,152.56,267.37,110.1,246,78.38Z"/><path class="cls-3" d="M229.81,168.71a68.51,68.51,0,0,0-.92-11.16l0,0s-8.06-62.42-59.14-112.54l0,0a75.92,75.92,0,0,0-109.73,0C9.13,95,1,157.22.92,157.59A68,68,0,0,0,0,168.71c0,30.9,20.8,57.15,49.74,66.65,0,0,45.91,16.82,119.64,2.67h0C203.75,232.07,229.81,203.3,229.81,168.71Z"/></g></g></svg>