<svg xmlns="http://www.w3.org/2000/svg" xmlns:xlink="http://www.w3.org/1999/xlink" viewBox="0 0 258.82 258.77"><defs><style>.cls-1,.cls-2,.cls-3{opacity:0.7;}.cls-1{fill:url(#linear-gradient);}.cls-2{fill:url(#radial-gradient);}.cls-3{fill:url(#linear-gradient-2);}</style><linearGradient id="linear-gradient" x1="9.54" y1="126.86" x2="258.82" y2="126.86" gradientUnits="userSpaceOnUse"><stop offset="0" stop-color="#f9ed32"/><stop offset="0.24" stop-color="#e5f046"/><stop offset="0.74" stop-color="#b3f879"/><stop offset="1" stop-color="#95fc97"/></linearGradient><radialGradient id="radial-gradient" cx="169.07" cy="107.49" fx="35.6456382645176" fy="252.96141796454827" r="197.4" gradientTransform="translate(-40.36) scale(1.05 1)" gradientUnits="userSpaceOnUse"><stop offset="0" stop-color="#f9ed32"/><stop offset="0.06" stop-color="#e5e834"/><stop offset="0.18" stop-color="#b1db39"/><stop offset="0.36" stop-color="#5fc641"/><stop offset="0.45" stop-color="#32ba46"/><stop offset="0.49" stop-color="#3bc04d"/><stop offset="0.72" stop-color="#6ce075"/><stop offset="0.9" stop-color="#8af48e"/><stop offset="1" stop-color="#95fc97"/></radialGradient><linearGradient id="linear-gradient-2" x1="0.27" y1="146.1" x2="229.54" y2="146.1" gradientUnits="userSpaceOnUse"><stop offset="0" stop-color="#73e57b"/><stop offset="0.11" stop-color="#73dc7e"/><stop offset="0.29" stop-color="#73c487"/><stop offset="0.52" stop-color="#739d96"/><stop offset="0.79" stop-color="#7468aa"/><stop offset="1" stop-color="#7437bc"/></linearGradient></defs><title>Asset 21</title><g id="Layer_2" data-name="Layer 2"><g id="OBJECTS"><path class="cls-1" d="M246,78.38a75.5,75.5,0,0,0-7.73-9.67l0,0S192.44,16.47,114.68,2l0,0A83.92,83.92,0,0,0,14.07,69.71C-1.8,147,29.08,209,29.27,209.4a74.9,74.9,0,0,0,6,10.77C54.35,248.5,89.62,259.74,122,250.6c0,0,52.48-12.9,111.36-71.37h0C261.22,152.56,267.37,110.1,246,78.38Z"/><path class="cls-2" d="M229.81,168.71a68.51,68.51,0,0,0-.92-11.16l0,0s-8.06-62.42-59.14-112.54l0,0a75.92,75.92,0,0,0-109.73,0C9.13,95,1,157.22.92,157.59A68,68,0,0,0,0,168.71c0,30.9,20.8,57.15,49.74,66.65,0,0,45.91,16.82,119.64,2.67h0C203.75,232.07,229.81,203.3,229.81,168.71Z"/><path class="cls-3" d="M191.68,46.42A68.27,68.27,0,0,0,181.3,42.2h0S122,21.21,54.22,44.14h0A75.93,75.93,0,0,0,4.68,142c21.59,68,73.4,103.38,73.7,103.59a68,68,0,0,0,9.51,5.84c27.57,14,60.39,7.25,81.93-14.28,0,0,35.74-33.36,56.41-105.54h0C236.43,98.29,222.54,62,191.68,46.42Z"/></g></g></svg>